<svg width="113" height="114" viewBox="0 0 113 114" fill="none" xmlns="http://www.w3.org/2000/svg">
<g id="Element">
<path id="Vector" d="M106.177 16.68C96.9166 11.15 81.6466 24.47 77.7666 28.1C78.5493 25.7979 79.9052 23.733 81.7066 22.1C81.7488 22.0669 81.7826 22.0243 81.8052 21.9756C81.8278 21.9269 81.8386 21.8736 81.8366 21.82C81.8367 21.7684 81.824 21.7176 81.7996 21.6722C81.7751 21.6268 81.7397 21.5883 81.6966 21.56C80.8388 20.9802 79.8318 20.6607 78.7966 20.64C79.3293 19.9837 80.0137 19.4669 80.7907 19.1342C81.5677 18.8014 82.414 18.6627 83.2566 18.73C83.3188 18.7392 83.3823 18.7299 83.4392 18.7032C83.4961 18.6765 83.5439 18.6337 83.5766 18.58C83.6082 18.5253 83.6249 18.4632 83.6249 18.4C83.6249 18.3368 83.6082 18.2747 83.5766 18.22C83.1678 17.6016 82.6031 17.1021 81.9393 16.7719C81.2756 16.4418 80.5364 16.2928 79.7966 16.34C81.1066 15.34 84.0766 14.98 85.2766 14.94C85.3406 14.9394 85.4031 14.9201 85.4563 14.8846C85.5096 14.8491 85.5514 14.7988 85.5766 14.74C85.6012 14.6827 85.6095 14.6197 85.6007 14.558C85.5919 14.4963 85.5662 14.4381 85.5266 14.39C84.3686 13.0431 82.7269 12.2061 80.9566 12.06C82.6166 10.06 87.5366 9.45998 87.5866 9.44998C87.6568 9.44459 87.7233 9.41621 87.7757 9.3692C87.8282 9.3222 87.8636 9.25921 87.8766 9.19C87.8931 9.15127 87.9017 9.10965 87.9021 9.06757C87.9025 9.02548 87.8946 8.98375 87.8788 8.94473C87.863 8.90572 87.8396 8.87019 87.8101 8.84021C87.7806 8.81023 87.7454 8.78636 87.7066 8.76999C86.1459 7.77614 84.3764 7.15667 82.5366 6.95999C84.5366 4.47999 90.8966 2.95999 90.9666 2.95999C91.0344 2.94411 91.0957 2.90776 91.1423 2.8559C91.1888 2.80403 91.2182 2.73913 91.2266 2.66998C91.2344 2.60176 91.2215 2.53277 91.1893 2.47208C91.1572 2.41139 91.1074 2.36185 91.0466 2.32999C86.7866 0.109987 81.5866 2.26999 81.3466 2.32999C75.3466 5.32999 75.0766 15.28 75.7066 22.17C73.3466 13.8 68.2166 0.69 59.1466 0C58.8466 0 51.7766 -2.3365e-05 47.8966 4.56998C47.8575 4.62559 47.8364 4.69196 47.8364 4.75998C47.8364 4.828 47.8575 4.89436 47.8966 4.94998C47.9316 5.00977 47.9835 5.05784 48.0458 5.0881C48.1081 5.11837 48.178 5.12947 48.2466 5.12C48.3366 5.12 56.7866 3.74998 60.2466 5.84998C58.1359 6.9444 56.321 8.53285 54.9566 10.48C54.9157 10.5387 54.8938 10.6085 54.8938 10.68C54.8938 10.7515 54.9157 10.8213 54.9566 10.88C54.9973 10.9372 55.0547 10.9804 55.121 11.0037C55.1872 11.027 55.2591 11.0292 55.3266 11.01C55.3966 11.01 61.6666 9.25999 64.5466 10.96C63.5326 11.4515 62.6272 12.1409 61.8836 12.9875C61.1399 13.8342 60.5732 14.821 60.2166 15.89C60.196 15.9508 60.1935 16.0162 60.2095 16.0784C60.2254 16.1406 60.2592 16.1967 60.3066 16.24C60.3514 16.2851 60.4086 16.3158 60.471 16.3283C60.5333 16.3408 60.5979 16.3344 60.6566 16.31C62.1466 15.76 66.0266 14.67 68.0266 15.41C67.1058 15.6779 66.2756 16.192 65.6253 16.8968C64.9751 17.6017 64.5295 18.4706 64.3366 19.41C64.3269 19.4726 64.3349 19.5366 64.3596 19.5949C64.3843 19.6532 64.4248 19.7035 64.4766 19.74C64.5313 19.7716 64.5934 19.7882 64.6566 19.7882C64.7198 19.7882 64.7819 19.7716 64.8366 19.74C65.8257 19.2307 66.9277 18.9801 68.0398 19.0116C69.1519 19.0431 70.2379 19.3556 71.1966 19.92C69.948 20.4256 68.879 21.2927 68.1266 22.41C68.1021 22.4562 68.0893 22.5077 68.0893 22.56C68.0893 22.6123 68.1021 22.6638 68.1266 22.71C68.1451 22.7593 68.1745 22.8038 68.2126 22.8401C68.2507 22.8765 68.2965 22.9038 68.3466 22.92C71.29 23.9759 73.9088 25.7781 75.9466 28.15C71.0066 26.24 54.2466 20.49 48.3666 28.15C48.2266 28.36 44.9166 33.35 46.3666 38.24C46.3866 38.3056 46.4259 38.3636 46.4794 38.4064C46.533 38.4493 46.5983 38.4749 46.6666 38.48H46.7166C46.7766 38.4736 46.8338 38.4518 46.8829 38.4168C46.9319 38.3817 46.9711 38.3346 46.9966 38.28C46.9966 38.21 49.9166 31.77 52.9366 30.28C52.7565 32.2525 53.0443 34.2396 53.7766 36.08C53.7999 36.1458 53.8433 36.2025 53.9008 36.242C53.9583 36.2816 54.0269 36.3019 54.0966 36.3C54.1685 36.2989 54.2381 36.2751 54.2956 36.232C54.3531 36.1889 54.3955 36.1287 54.4166 36.06C54.4166 36.01 56.0666 30.93 58.5266 29.62C58.4171 30.5555 58.4932 31.5034 58.7506 32.4094C59.008 33.3155 59.4416 34.1618 60.0266 34.9C60.0667 34.949 60.1201 34.9855 60.1804 35.005C60.2407 35.0245 60.3054 35.0262 60.3666 35.01C60.4282 34.9975 60.4848 34.9671 60.5293 34.9226C60.5737 34.8782 60.6041 34.8216 60.6166 34.76C60.9066 33.5 61.8766 30.4 63.2466 29.26C63.0376 30.0276 63.0367 30.837 63.2441 31.605C63.4515 32.373 63.8596 33.0719 64.4266 33.63C64.4733 33.672 64.5304 33.7006 64.592 33.713C64.6536 33.7253 64.7174 33.7208 64.7766 33.7C64.8364 33.6765 64.8885 33.637 64.9273 33.5858C64.9661 33.5347 64.9901 33.4739 64.9966 33.41C65.102 32.5062 65.4255 31.6416 65.9395 30.8907C66.4534 30.1399 67.1422 29.5253 67.9466 29.1C67.7474 30.192 67.8726 31.3184 68.3066 32.34C68.3266 32.388 68.358 32.4303 68.3981 32.4634C68.4382 32.4965 68.4857 32.5194 68.5366 32.53C68.5871 32.5411 68.6395 32.5406 68.6897 32.5285C68.74 32.5164 68.7868 32.4929 68.8266 32.46C69.6167 31.8403 70.4798 31.3197 71.3966 30.91C70.9962 31.2794 70.6853 31.7354 70.4878 32.2432C70.2902 32.7509 70.2111 33.2971 70.2566 33.84C70.338 34.7932 70.7945 35.6752 71.5258 36.2921C72.2571 36.9089 73.2033 37.2103 74.1566 37.13C74.9403 37.0612 75.679 36.7341 76.2566 36.2C77.1066 38.42 80.3566 49.06 74.8566 70.2C67.4366 72.43 66.2566 74.77 65.2266 76.84C64.8926 77.5921 64.4476 78.2899 63.9066 78.91C63.3838 79.649 63.0746 80.5177 63.0129 81.4209C62.9512 82.324 63.1393 83.2267 63.5566 84.03C64.9266 86.89 69.4366 90.03 83.0966 88.88C92.4966 88.08 98.2866 85.88 100.307 82.34C100.717 81.6619 100.963 80.8975 101.025 80.1076C101.088 79.3177 100.965 78.5241 100.667 77.79C98.6666 73.01 93.5466 69.14 88.6666 68.67C87.8866 60.96 85.4966 42.89 79.8366 35.67C80.076 35.695 80.3173 35.695 80.5566 35.67C81.5107 35.5861 82.3926 35.1274 83.0093 34.3946C83.6259 33.6617 83.927 32.7144 83.8466 31.76C83.7844 31.0427 83.508 30.3607 83.0533 29.8026C82.5986 29.2444 81.9865 28.8358 81.2966 28.63C83.2229 28.4626 85.1637 28.6422 87.0266 29.16C87.0718 29.1821 87.1213 29.1935 87.1716 29.1935C87.2219 29.1935 87.2715 29.1821 87.3166 29.16C87.361 29.1322 87.3978 29.094 87.424 29.0487C87.4501 29.0033 87.4648 28.9523 87.4666 28.9C87.4918 27.6563 87.1434 26.4337 86.4666 25.39C87.4828 25.4859 88.4591 25.8332 89.3075 26.4005C90.1559 26.9679 90.8498 27.7375 91.3266 28.64C91.3542 28.6962 91.3969 28.7437 91.4498 28.7773C91.5028 28.8108 91.564 28.829 91.6266 28.83C91.6893 28.829 91.7504 28.8108 91.8034 28.7773C91.8563 28.7437 91.899 28.6962 91.9266 28.64C92.2895 27.8305 92.4254 26.9376 92.3197 26.0568C92.214 25.176 91.8707 24.3406 91.3266 23.64C93.2066 24.19 95.5266 27.04 96.3266 28.24C96.361 28.2896 96.4076 28.3295 96.4619 28.3557C96.5162 28.382 96.5764 28.3938 96.6366 28.39C96.7001 28.3806 96.7594 28.3528 96.8074 28.3102C96.8553 28.2676 96.8898 28.2119 96.9066 28.15C97.2029 27.1583 97.3006 26.1178 97.1943 25.0882C97.0879 24.0587 96.7794 23.0602 96.2866 22.15C99.3566 22.45 103.137 27.06 103.177 27.15C103.221 27.2045 103.282 27.2442 103.35 27.2638C103.417 27.2835 103.49 27.2821 103.557 27.26C103.625 27.2377 103.684 27.1931 103.724 27.1332C103.764 27.0733 103.782 27.0017 103.777 26.93C103.785 24.7374 103.271 22.5743 102.277 20.62C105.987 20.9 111.617 26.4 111.677 26.46C111.726 26.5085 111.789 26.5403 111.857 26.5511C111.925 26.5618 111.995 26.551 112.057 26.52C112.118 26.4914 112.17 26.4443 112.204 26.3852C112.238 26.3261 112.253 26.2579 112.247 26.19C111.817 20.62 106.427 16.85 106.177 16.68ZM88.2866 72.29C88.1557 73.3407 87.7249 74.3314 87.0457 75.1437C86.3665 75.9559 85.4676 76.5553 84.4566 76.87C81.6166 77.87 77.6066 77.21 75.7066 75.43C75.3196 75.1157 75.0303 74.6976 74.8727 74.2246C74.715 73.7517 74.6956 73.2436 74.8166 72.76L75.0566 71.88C77.5162 72.7941 80.1358 73.1989 82.7566 73.07C84.7979 72.9877 86.7288 72.1208 88.1466 70.65C88.2366 71.56 88.2766 72.14 88.2866 72.29ZM88.0566 69.69C84.6266 74.3 76.7966 71.79 75.2266 71.22C75.6866 69.52 76.09 67.8866 76.4366 66.32C78.2039 67.411 80.2789 67.8956 82.3466 67.7C84.2207 67.5011 86.0291 66.8972 87.6466 65.93C87.8166 67.39 87.9566 68.67 88.0566 69.69ZM87.5566 65.2C81.5566 68.8 77.4366 66.2 76.5566 65.61C76.8966 64.04 77.1766 62.54 77.4266 61.11C79.0389 61.6306 80.7374 61.831 82.4266 61.7C83.9713 61.5775 85.47 61.1166 86.8166 60.35C87.1466 62.08 87.3666 63.77 87.5566 65.2ZM77.5566 60.43C77.8066 58.93 78.0066 57.49 78.1566 56.14C79.4798 56.624 80.893 56.8117 82.2966 56.69C83.6081 56.5788 84.8802 56.1866 86.0266 55.54C86.2966 56.93 86.5266 58.3 86.7366 59.63C85.3494 60.3932 83.8183 60.8586 82.241 60.9963C80.6637 61.1341 79.0751 60.9412 77.5766 60.43H77.5566ZM78.2266 55.43C78.3566 54.15 78.4566 52.93 78.5166 51.78C79.6463 52.1552 80.8403 52.298 82.0266 52.2C83.1248 52.1022 84.1872 51.7605 85.1366 51.2C85.4066 52.39 85.6666 53.6 85.8966 54.79C84.7498 55.4597 83.4682 55.8656 82.1449 55.978C80.8217 56.0904 79.49 55.9067 78.2466 55.44L78.2266 55.43ZM78.5566 51.07C78.5566 50 78.6166 48.99 78.6066 48.07C79.3453 48.2044 80.0984 48.2414 80.8466 48.18C82.0012 48.1021 83.1103 47.7 84.0466 47.02C84.3766 48.18 84.6866 49.37 84.9666 50.57C84.0023 51.1134 82.9312 51.4405 81.8278 51.5286C80.7243 51.6167 79.615 51.4636 78.5766 51.08L78.5566 51.07ZM78.6066 47.34C78.6066 46.15 78.5266 45.06 78.4366 44.06C78.9742 44.1817 79.5275 44.2188 80.0766 44.17C81.0675 44.0806 82.0184 43.7361 82.8366 43.17C83.1866 44.17 83.5266 45.17 83.8366 46.26C83.0926 46.7956 82.2445 47.1694 81.3471 47.3571C80.4498 47.5449 79.523 47.5424 78.6266 47.35L78.6066 47.34ZM78.3766 43.34C78.29 42.5 78.1899 41.73 78.0766 41.03C78.3925 41.0609 78.7107 41.0609 79.0266 41.03C79.9499 40.9656 80.8304 40.6162 81.5466 40.03C81.9166 40.82 82.2566 41.66 82.5966 42.53C82.0059 42.9788 81.3201 43.2861 80.5919 43.4283C79.8638 43.5704 79.1128 43.5436 78.3966 43.35L78.3766 43.34ZM77.9666 40.34C77.8166 39.54 77.6666 38.85 77.5166 38.26C77.7228 38.28 77.9304 38.28 78.1366 38.26C78.8913 38.2083 79.6018 37.885 80.1366 37.35C80.554 37.9946 80.9346 38.6624 81.2766 39.35C80.8371 39.7508 80.3137 40.0486 79.7445 40.2216C79.1754 40.3946 78.5749 40.4384 77.9866 40.35L77.9666 40.34ZM77.3166 37.54C77.1266 36.88 76.9566 36.39 76.8266 36.05H77.2566C77.787 36.0013 78.2997 35.8338 78.7566 35.56C79.1132 35.9435 79.4471 36.3475 79.7566 36.77C79.458 37.102 79.0768 37.3491 78.6517 37.4861C78.2267 37.6231 77.7729 37.6451 77.3366 37.55L77.3166 37.54ZM78.6266 34.85C78.2983 35.075 77.9286 35.2324 77.5389 35.3131C77.1491 35.3938 76.7472 35.3961 76.3566 35.32C75.7377 35.1929 75.1764 34.8691 74.7565 34.397C74.3366 33.9248 74.0806 33.3295 74.0266 32.7C73.9922 32.3221 74.0328 31.9412 74.1461 31.5791C74.2594 31.217 74.4431 30.8809 74.6866 30.59C74.9307 30.287 75.2339 30.0367 75.5777 29.8545C75.9215 29.6723 76.2988 29.5619 76.6866 29.53H77.1166C77.4876 29.5487 77.8512 29.6404 78.1866 29.8C78.6508 30.0188 79.0493 30.3556 79.3424 30.7768C79.6355 31.198 79.8128 31.6887 79.8566 32.2C79.9074 32.7107 79.8222 33.2257 79.6097 33.6929C79.3972 34.1601 79.0649 34.5627 78.6466 34.86L78.6266 34.85ZM81.6266 3.01999C82.9094 2.52295 84.2561 2.20986 85.6266 2.09C87.0588 1.94115 88.5062 2.1084 89.8666 2.57999C87.7766 3.15999 82.8666 4.74 81.6266 7.16C81.5947 7.21095 81.5777 7.26985 81.5777 7.32999C81.5777 7.39012 81.5947 7.44905 81.6266 7.5C81.6579 7.55031 81.7024 7.59095 81.7554 7.61743C81.8083 7.64391 81.8676 7.6552 81.9266 7.64999C83.5259 7.68824 85.0914 8.1174 86.4866 8.89999C84.7066 9.22999 81.0566 10.13 79.9966 12.19C79.9677 12.2402 79.9524 12.2971 79.9524 12.355C79.9524 12.4129 79.9677 12.4698 79.9966 12.52C80.0274 12.5714 80.0716 12.6134 80.1244 12.6416C80.1773 12.6698 80.2368 12.6831 80.2966 12.68C81.8352 12.6871 83.3182 13.2561 84.4666 14.28C82.9466 14.41 79.5166 14.9 78.6366 16.57C78.6029 16.624 78.5851 16.6864 78.5851 16.75C78.5851 16.8136 78.6029 16.876 78.6366 16.93C78.6723 16.9847 78.7245 17.0268 78.7855 17.0501C78.8466 17.0735 78.9135 17.0769 78.9766 17.06C79.6006 16.9346 80.2455 16.96 80.8577 17.1339C81.4699 17.3078 82.0318 17.6253 82.4966 18.06C81.5342 18.077 80.5925 18.3417 79.7622 18.8286C78.9319 19.3156 78.2412 20.0083 77.7566 20.84C77.7249 20.8929 77.7081 20.9533 77.7081 21.015C77.7081 21.0766 77.7249 21.1371 77.7566 21.19C77.7911 21.2419 77.8391 21.2834 77.8956 21.3098C77.952 21.3363 78.0146 21.3467 78.0766 21.34C79.0216 21.2747 79.967 21.461 80.8166 21.88C79.1181 23.5227 77.8271 25.5397 77.0466 27.77C76.3366 22.97 74.1166 6.82 81.7066 3.03L81.6266 3.01999ZM68.8566 22.52C69.6653 21.56 70.7247 20.8434 71.9166 20.45C71.9766 20.4328 72.0308 20.3995 72.0731 20.3537C72.1154 20.3078 72.1443 20.2512 72.1566 20.19C72.1663 20.1284 72.1594 20.0653 72.1365 20.0073C72.1137 19.9493 72.0757 19.8984 72.0266 19.86C71.0369 19.118 69.8713 18.6458 68.6442 18.4898C67.4171 18.3338 66.1705 18.4993 65.0266 18.97C65.8366 16.47 68.6866 15.97 68.8166 15.91C68.8805 15.9018 68.9405 15.8745 68.9887 15.8317C69.0369 15.7889 69.071 15.7325 69.0866 15.67C69.1013 15.6071 69.0989 15.5415 69.0795 15.4799C69.0602 15.4183 69.0246 15.3631 68.9766 15.32C67.1166 13.76 62.6866 14.97 60.9766 15.52C61.8138 13.665 63.3264 12.1989 65.2066 11.42C65.2635 11.4007 65.314 11.3664 65.3528 11.3206C65.3915 11.2747 65.4171 11.2192 65.4266 11.16C65.4368 11.1017 65.4321 11.0418 65.4129 10.9858C65.3936 10.9298 65.3605 10.8797 65.3166 10.84C63.0366 8.89 58.0766 9.72 55.9766 10.19C57.269 8.50248 58.9688 7.17083 60.9166 6.31998C60.9729 6.29981 61.0229 6.26516 61.0615 6.21951C61.1001 6.17386 61.126 6.11885 61.1366 6.06C61.1489 6.0017 61.1451 5.94117 61.1257 5.88483C61.1064 5.82849 61.0721 5.77843 61.0266 5.73999C58.3166 3.45999 51.5266 4.06997 49.0266 4.37997C52.8066 0.719974 59.0266 0.73999 59.0866 0.73999C70.0066 1.57999 75.1766 22.33 76.3566 27.86C74.3423 25.501 71.7811 23.6711 68.8966 22.53L68.8566 22.52ZM68.7066 31.77C68.4411 30.7876 68.4411 29.7524 68.7066 28.77C68.7252 28.7106 68.7266 28.6472 68.7107 28.587C68.6947 28.5268 68.6622 28.4724 68.6166 28.43C68.5731 28.3862 68.5182 28.3555 68.4581 28.3413C68.398 28.3272 68.3351 28.3302 68.2766 28.35C67.3074 28.6954 66.4432 29.2843 65.7672 30.0602C65.0912 30.836 64.6261 31.7726 64.4166 32.78C64.0464 32.1973 63.823 31.5336 63.7655 30.8456C63.708 30.1577 63.8182 29.466 64.0866 28.83C64.1206 28.778 64.1387 28.7172 64.1387 28.655C64.1387 28.5928 64.1206 28.532 64.0866 28.48C64.0438 28.4319 63.9881 28.3969 63.9261 28.3792C63.8642 28.3615 63.7984 28.3618 63.7366 28.38C61.7966 28.95 60.5966 32.5 60.1666 34.03C59.3004 32.612 58.9938 30.9219 59.3066 29.29C59.319 29.2325 59.3163 29.1729 59.2988 29.1168C59.2813 29.0607 59.2495 29.0102 59.2066 28.97C59.1654 28.926 59.1122 28.895 59.0535 28.8808C58.9949 28.8666 58.9335 28.8698 58.8766 28.89C56.4966 29.58 54.8066 33.29 54.1266 35.06C53.5764 33.4188 53.4356 31.668 53.7166 29.96C53.7332 29.902 53.7336 29.8406 53.7177 29.7824C53.7019 29.7242 53.6703 29.6715 53.6266 29.63C53.584 29.588 53.5308 29.5584 53.4727 29.5443C53.4146 29.5302 53.3537 29.5322 53.2966 29.55C50.4866 30.39 47.8266 35.25 46.8166 37.28C46.0866 32.99 48.9066 28.73 48.9266 28.7C50.6266 26.5 53.3566 25.51 56.4766 25.24C63.5266 24.64 72.4766 27.76 75.7866 29.01C73.2401 29.3515 70.8124 30.2979 68.7066 31.77ZM74.5066 29.92L74.3366 30.08H74.0366L74.5066 29.92ZM70.8766 33.92C70.8437 33.5357 70.887 33.1488 71.004 32.7813C71.121 32.4138 71.3094 32.073 71.5584 31.7785C71.8074 31.484 72.1121 31.2416 72.455 31.0651C72.7979 30.8886 73.1723 30.7815 73.5566 30.75H73.8566V30.8C73.8566 30.85 73.8066 30.91 73.7766 30.96C73.7082 31.0962 73.6481 31.2365 73.5966 31.38L73.5366 31.59C73.4961 31.7309 73.4661 31.8746 73.4466 32.02V32.21C73.4266 32.4262 73.4266 32.6438 73.4466 32.86C73.462 33.0421 73.492 33.2227 73.5366 33.4C73.5366 33.46 73.5366 33.52 73.5866 33.58L73.7066 33.92L73.7966 34.11C73.8439 34.2098 73.8974 34.3067 73.9566 34.4L74.0766 34.59C74.1343 34.6775 74.1978 34.761 74.2666 34.84L74.4166 35.01C74.4882 35.0916 74.565 35.1684 74.6466 35.24L74.8166 35.38C74.9023 35.4522 74.9925 35.519 75.0866 35.58L75.2566 35.69C75.4007 35.7719 75.5512 35.8421 75.7066 35.9C75.2445 36.2925 74.6709 36.5303 74.0666 36.58C73.6747 36.6169 73.2795 36.5748 72.9042 36.4561C72.5289 36.3375 72.1813 36.1446 71.8819 35.8891C71.5826 35.6336 71.3375 35.3205 71.1614 34.9685C70.9853 34.6165 70.8816 34.2328 70.8566 33.84L70.8766 33.92ZM100.027 78.21C100.282 78.8583 100.383 79.5571 100.322 80.2512C100.262 80.9453 100.041 81.6159 99.6766 82.21C98.3666 84.49 94.4066 87.42 83.0066 88.4C69.0066 89.59 65.1766 86.11 64.1266 83.92C63.7747 83.2377 63.6114 82.4738 63.6536 81.7073C63.6958 80.9408 63.9419 80.1995 64.3666 79.56C64.9542 78.8919 65.4395 78.1404 65.8066 77.33C66.8066 75.33 67.8566 73.27 74.6166 71.16C74.4866 71.67 74.3466 72.16 74.2066 72.7C74.0416 73.3014 74.0559 73.9379 74.2478 74.5313C74.4397 75.1247 74.8007 75.649 75.2866 76.04C76.2862 76.8369 77.4331 77.429 78.6616 77.7824C79.8902 78.1359 81.1763 78.2438 82.4466 78.1C83.2234 78.0338 83.9891 77.8727 84.7266 77.62C85.8594 77.2635 86.8655 76.5883 87.6246 75.6749C88.3836 74.7616 88.8634 73.6489 89.0066 72.47V72.4C89.0066 72.19 88.9166 71.15 88.7566 69.54C91.1939 69.9352 93.496 70.9261 95.4585 72.4246C97.421 73.923 98.9833 75.8828 100.007 78.13L100.027 78.21ZM83.1666 32.01C83.1995 32.3935 83.1566 32.7797 83.0402 33.1465C82.9238 33.5134 82.7363 33.8538 82.4883 34.1481C82.2404 34.4425 81.9369 34.6852 81.5951 34.8622C81.2534 35.0393 80.8801 35.1473 80.4966 35.18C80.1612 35.2125 79.8226 35.1854 79.4966 35.1C79.5566 35.05 79.5966 34.99 79.6566 34.93L79.7366 34.84C79.8266 34.73 79.9166 34.61 79.9966 34.49C80.0666 34.38 80.1266 34.26 80.1866 34.15L80.2466 34.02C80.2466 33.93 80.3166 33.84 80.3466 33.74C80.3766 33.64 80.3466 33.64 80.3966 33.59C80.4258 33.4982 80.4492 33.4047 80.4666 33.31V33.16V32.86C80.4712 32.8134 80.4712 32.7666 80.4666 32.72C80.4766 32.5702 80.4766 32.4198 80.4666 32.27C80.4666 32.12 80.4666 31.98 80.3966 31.83C80.3266 31.68 80.3966 31.74 80.3966 31.69C80.3966 31.64 80.3466 31.5 80.3166 31.41L80.2566 31.25C80.2241 31.1649 80.1874 31.0814 80.1466 31C80.1239 30.948 80.0971 30.8978 80.0666 30.85C80.0666 30.77 79.9766 30.69 79.9266 30.61L79.8366 30.48C79.7753 30.3867 79.7049 30.2996 79.6266 30.22L79.5666 30.14C79.4716 30.0383 79.3715 29.9415 79.2666 29.85L79.1466 29.76L78.9766 29.62C79.2748 29.4895 79.5923 29.4084 79.9166 29.38C80.6821 29.2952 81.4502 29.5153 82.0546 29.9925C82.6591 30.4697 83.0514 31.1657 83.1466 31.93L83.1666 32.01ZM101.707 20.01C101.648 20.0154 101.591 20.0357 101.542 20.0689C101.493 20.1021 101.453 20.1472 101.427 20.2C101.398 20.252 101.383 20.3105 101.383 20.37C101.383 20.4295 101.398 20.488 101.427 20.54C102.427 22.2075 102.997 24.0975 103.087 26.04C101.717 24.54 98.4566 21.34 95.7166 21.58C95.6586 21.5841 95.6028 21.604 95.5552 21.6375C95.5076 21.671 95.4701 21.7168 95.4466 21.77C95.4177 21.822 95.4026 21.8805 95.4026 21.94C95.4026 21.9995 95.4177 22.058 95.4466 22.11C96.4283 23.6905 96.7849 25.5805 96.4466 27.41C95.4466 26.05 92.7266 22.82 90.4966 23.02C90.4317 23.0229 90.3691 23.0454 90.3173 23.0847C90.2655 23.1241 90.2269 23.1782 90.2066 23.24C90.182 23.2994 90.1764 23.365 90.1908 23.4277C90.2051 23.4904 90.2386 23.5472 90.2866 23.59C90.8289 24.1446 91.2259 24.8245 91.4422 25.5695C91.6585 26.3144 91.6875 27.1012 91.5266 27.86C90.9056 26.9115 90.052 26.1378 89.0472 25.6127C88.0424 25.0875 86.9199 24.8284 85.7866 24.86C85.7234 24.864 85.6624 24.8846 85.6098 24.9197C85.5571 24.9549 85.5146 25.0032 85.4866 25.06C85.462 25.1173 85.4537 25.1803 85.4625 25.242C85.4714 25.3037 85.497 25.3619 85.5366 25.41C86.2216 26.3319 86.637 27.4258 86.7366 28.57C84.8745 28.1058 82.9478 27.9571 81.0366 28.13C80.1105 28.2154 79.1916 28.3658 78.2866 28.58C82.2866 24.93 97.1366 12.15 105.777 17.32C105.827 17.32 110.517 20.63 111.447 25.39C109.707 23.69 104.937 19.68 101.707 19.96V20.01Z" fill="#E5E5E5"/>
<path id="Vector_2" d="M60.1766 40.68C50.9166 35.15 35.6466 48.47 31.7666 52.1C32.5493 49.7979 33.9052 47.733 35.7066 46.1C35.7488 46.0669 35.7826 46.0243 35.8052 45.9756C35.8278 45.9269 35.8386 45.8736 35.8366 45.82C35.8367 45.7684 35.824 45.7176 35.7996 45.6722C35.7751 45.6268 35.7397 45.5883 35.6966 45.56C34.8388 44.9802 33.8318 44.6607 32.7966 44.64C33.3293 43.9837 34.0137 43.4669 34.7907 43.1342C35.5677 42.8014 36.414 42.6627 37.2566 42.73C37.3188 42.7392 37.3823 42.7299 37.4392 42.7032C37.4961 42.6765 37.5439 42.6337 37.5766 42.58C37.6082 42.5253 37.6249 42.4632 37.6249 42.4C37.6249 42.3368 37.6082 42.2747 37.5766 42.22C37.1678 41.6016 36.6031 41.1021 35.9393 40.7719C35.2756 40.4418 34.5364 40.2928 33.7966 40.34C35.1066 39.34 38.0766 38.98 39.2766 38.94C39.3406 38.9394 39.4031 38.9201 39.4563 38.8846C39.5096 38.8491 39.5514 38.7988 39.5766 38.74C39.6012 38.6827 39.6095 38.6197 39.6007 38.558C39.5919 38.4963 39.5662 38.4381 39.5266 38.39C38.3686 37.0431 36.7269 36.2061 34.9566 36.06C36.6166 34.06 41.5366 33.46 41.5866 33.45C41.6568 33.4446 41.7233 33.4162 41.7757 33.3692C41.8282 33.3222 41.8636 33.2592 41.8766 33.19C41.8931 33.1513 41.9017 33.1097 41.9021 33.0676C41.9025 33.0255 41.8946 32.9837 41.8788 32.9447C41.863 32.9057 41.8396 32.8702 41.8101 32.8402C41.7806 32.8102 41.7454 32.7864 41.7066 32.77C40.1459 31.7761 38.3764 31.1567 36.5366 30.96C38.5366 28.48 44.8966 26.96 44.9666 26.96C45.0344 26.9441 45.0957 26.9078 45.1423 26.8559C45.1888 26.804 45.2182 26.7391 45.2266 26.67C45.2344 26.6018 45.2215 26.5328 45.1893 26.4721C45.1572 26.4114 45.1074 26.3619 45.0466 26.33C40.7866 24.11 35.5866 26.27 35.3466 26.33C29.3466 29.33 29.0766 39.28 29.7066 46.17C27.3466 37.8 22.2166 24.69 13.1466 24C12.8466 24 5.77662 24 1.89662 28.57C1.85745 28.6256 1.83643 28.692 1.83643 28.76C1.83643 28.828 1.85745 28.8944 1.89662 28.95C1.93159 29.0098 1.98348 29.0578 2.04578 29.0881C2.10809 29.1184 2.17798 29.1295 2.24659 29.12C2.33659 29.12 10.7866 27.75 14.2466 29.85C12.1359 30.9444 10.321 32.5329 8.95661 34.48C8.91575 34.5387 8.89384 34.6085 8.89384 34.68C8.89384 34.7515 8.91575 34.8213 8.95661 34.88C8.99731 34.9372 9.05473 34.9804 9.12098 35.0037C9.18723 35.027 9.25906 35.0292 9.32661 35.01C9.39661 35.01 15.6666 33.26 18.5466 34.96C17.5326 35.4515 16.6272 36.1409 15.8836 36.9875C15.1399 37.8342 14.5732 38.821 14.2166 39.89C14.196 39.9508 14.1935 40.0162 14.2095 40.0784C14.2254 40.1406 14.2592 40.1967 14.3066 40.24C14.3514 40.2851 14.4086 40.3158 14.471 40.3283C14.5333 40.3408 14.5979 40.3344 14.6566 40.31C16.1466 39.76 20.0266 38.67 22.0266 39.41C21.1058 39.6779 20.2756 40.192 19.6253 40.8968C18.9751 41.6017 18.5295 42.4706 18.3366 43.41C18.3269 43.4726 18.3349 43.5366 18.3596 43.5949C18.3843 43.6532 18.4248 43.7035 18.4766 43.74C18.5313 43.7716 18.5934 43.7882 18.6566 43.7882C18.7198 43.7882 18.7819 43.7716 18.8366 43.74C19.8257 43.2307 20.9277 42.9801 22.0398 43.0116C23.1519 43.0431 24.2379 43.3556 25.1966 43.92C23.948 44.4256 22.879 45.2927 22.1266 46.41C22.1021 46.4562 22.0893 46.5077 22.0893 46.56C22.0893 46.6123 22.1021 46.6638 22.1266 46.71C22.1451 46.7593 22.1745 46.8038 22.2126 46.8401C22.2507 46.8765 22.2965 46.9038 22.3466 46.92C25.29 47.9759 27.9088 49.7781 29.9466 52.15C25.0066 50.24 8.24659 44.49 2.36659 52.15C2.22659 52.36 -1.08341 57.35 0.366586 62.24C0.386562 62.3056 0.425902 62.3636 0.47944 62.4064C0.532978 62.4493 0.598262 62.4749 0.666635 62.48H0.716622C0.776567 62.4736 0.833826 62.4518 0.882882 62.4168C0.931938 62.3817 0.971095 62.3346 0.996591 62.28C0.996591 62.21 3.91662 55.77 6.93662 54.28C6.75649 56.2525 7.04428 58.2396 7.77662 60.08C7.79985 60.1458 7.84333 60.2025 7.90083 60.242C7.95832 60.2816 8.02688 60.3019 8.09663 60.3C8.16848 60.2989 8.23814 60.2751 8.29563 60.232C8.35312 60.1889 8.39547 60.1287 8.4166 60.06C8.4166 60.01 10.0666 54.93 12.5266 53.62C12.4171 54.5555 12.4932 55.5034 12.7506 56.4094C13.008 57.3155 13.4416 58.1618 14.0266 58.9C14.0667 58.949 14.1201 58.9855 14.1804 59.005C14.2407 59.0245 14.3054 59.0262 14.3666 59.01C14.4282 58.9975 14.4848 58.9671 14.5293 58.9226C14.5737 58.8782 14.6041 58.8216 14.6166 58.76C14.9066 57.5 15.8766 54.4 17.2466 53.26C17.0376 54.0276 17.0367 54.837 17.2441 55.605C17.4515 56.373 17.8596 57.0719 18.4266 57.63C18.4733 57.672 18.5304 57.7006 18.592 57.713C18.6536 57.7253 18.7174 57.7208 18.7766 57.7C18.8364 57.6765 18.8885 57.637 18.9273 57.5858C18.9661 57.5347 18.9901 57.4739 18.9966 57.41C19.102 56.5062 19.4255 55.6416 19.9395 54.8907C20.4534 54.1399 21.1422 53.5253 21.9466 53.1C21.7474 54.192 21.8726 55.3184 22.3066 56.34C22.3266 56.388 22.358 56.4303 22.3981 56.4634C22.4382 56.4965 22.4857 56.5194 22.5366 56.53C22.5871 56.5411 22.6395 56.5406 22.6897 56.5285C22.74 56.5164 22.7868 56.4929 22.8266 56.46C23.6167 55.8403 24.4798 55.3197 25.3966 54.91C24.9962 55.2794 24.6853 55.7354 24.4878 56.2432C24.2902 56.7509 24.2111 57.2971 24.2566 57.84C24.338 58.7932 24.7945 59.6752 25.5258 60.2921C26.2571 60.9089 27.2033 61.2103 28.1566 61.13C28.9403 61.0612 29.679 60.7341 30.2566 60.2C31.1066 62.42 34.3566 73.06 28.8566 94.2C21.4366 96.43 20.2566 98.77 19.2266 100.84C18.8926 101.592 18.4476 102.29 17.9066 102.91C17.3838 103.649 17.0746 104.518 17.0129 105.421C16.9512 106.324 17.1393 107.227 17.5566 108.03C18.9266 110.89 23.4366 114.03 37.0966 112.88C46.4966 112.08 52.2866 109.88 54.3066 106.34C54.7166 105.662 54.9627 104.898 55.0252 104.108C55.0877 103.318 54.9649 102.524 54.6666 101.79C52.6666 97.01 47.5466 93.14 42.6666 92.67C41.8866 84.96 39.4966 66.89 33.8366 59.67C34.076 59.695 34.3173 59.695 34.5566 59.67C35.5107 59.5861 36.3926 59.1274 37.0093 58.3946C37.6259 57.6617 37.927 56.7144 37.8466 55.76C37.7844 55.0427 37.508 54.3607 37.0533 53.8026C36.5986 53.2444 35.9865 52.8358 35.2966 52.63C37.2229 52.4626 39.1637 52.6422 41.0266 53.16C41.0718 53.1821 41.1213 53.1935 41.1716 53.1935C41.2219 53.1935 41.2715 53.1821 41.3166 53.16C41.361 53.1322 41.3978 53.094 41.424 53.0487C41.4501 53.0033 41.4648 52.9523 41.4666 52.9C41.4918 51.6563 41.1434 50.4337 40.4666 49.39C41.4828 49.4859 42.4591 49.8332 43.3075 50.4005C44.1559 50.9679 44.8498 51.7375 45.3266 52.64C45.3542 52.6962 45.3969 52.7437 45.4498 52.7773C45.5028 52.8108 45.564 52.829 45.6266 52.83C45.6893 52.829 45.7504 52.8108 45.8034 52.7773C45.8563 52.7437 45.899 52.6962 45.9266 52.64C46.2895 51.8305 46.4254 50.9376 46.3197 50.0568C46.214 49.176 45.8707 48.3406 45.3266 47.64C47.2066 48.19 49.5266 51.04 50.3266 52.24C50.361 52.2896 50.4076 52.3295 50.4619 52.3557C50.5162 52.382 50.5764 52.3938 50.6366 52.39C50.7001 52.3806 50.7594 52.3528 50.8074 52.3102C50.8553 52.2676 50.8898 52.2119 50.9066 52.15C51.2029 51.1583 51.3006 50.1178 51.1943 49.0882C51.0879 48.0587 50.7794 47.0602 50.2866 46.15C53.3566 46.45 57.1366 51.06 57.1766 51.15C57.2215 51.2045 57.2818 51.2442 57.3496 51.2638C57.4174 51.2835 57.4896 51.2821 57.5566 51.26C57.6251 51.2377 57.684 51.1931 57.7239 51.1332C57.7638 51.0733 57.7824 51.0017 57.7766 50.93C57.785 48.7374 57.2708 46.5743 56.2766 44.62C59.9866 44.9 65.6166 50.4 65.6766 50.46C65.7257 50.5085 65.7888 50.5403 65.857 50.5511C65.9251 50.5618 65.995 50.551 66.0566 50.52C66.1185 50.4914 66.17 50.4443 66.204 50.3852C66.238 50.3261 66.2529 50.2579 66.2466 50.19C65.8166 44.62 60.4266 40.85 60.1766 40.68ZM42.2866 96.29C42.1557 97.3407 41.7249 98.3314 41.0457 99.1437C40.3665 99.9559 39.4676 100.555 38.4566 100.87C35.6166 101.87 31.6066 101.21 29.7066 99.43C29.3196 99.1157 29.0303 98.6976 28.8727 98.2246C28.715 97.7517 28.6956 97.2436 28.8166 96.76L29.0566 95.88C31.5162 96.7941 34.1358 97.1989 36.7566 97.07C38.7979 96.9877 40.7288 96.1208 42.1466 94.65C42.2366 95.56 42.2766 96.14 42.2866 96.29ZM42.0566 93.69C38.6266 98.3 30.7966 95.79 29.2266 95.22C29.6866 93.52 30.09 91.8866 30.4366 90.32C32.2039 91.411 34.2789 91.8956 36.3466 91.7C38.2207 91.5011 40.0291 90.8972 41.6466 89.93C41.8166 91.39 41.9566 92.67 42.0566 93.69ZM41.5566 89.2C35.5566 92.8 31.4366 90.2 30.5566 89.61C30.8966 88.04 31.1766 86.54 31.4266 85.11C33.0389 85.6306 34.7374 85.831 36.4266 85.7C37.9713 85.5775 39.47 85.1166 40.8166 84.35C41.1466 86.08 41.3666 87.77 41.5566 89.2ZM31.5566 84.43C31.8066 82.93 32.0066 81.49 32.1566 80.14C33.4798 80.624 34.893 80.8117 36.2966 80.69C37.6081 80.5788 38.8802 80.1866 40.0266 79.54C40.2966 80.93 40.5266 82.3 40.7366 83.63C39.3494 84.3932 37.8183 84.8586 36.241 84.9963C34.6637 85.1341 33.0751 84.9412 31.5766 84.43H31.5566ZM32.2266 79.43C32.3566 78.15 32.4566 76.93 32.5166 75.78C33.6463 76.1552 34.8403 76.298 36.0266 76.2C37.1248 76.1022 38.1872 75.7605 39.1366 75.2C39.4066 76.39 39.6666 77.6 39.8966 78.79C38.7498 79.4597 37.4682 79.8656 36.1449 79.978C34.8217 80.0904 33.49 79.9067 32.2466 79.44L32.2266 79.43ZM32.5566 75.07C32.5566 74 32.6166 72.99 32.6066 72.07C33.3453 72.2044 34.0984 72.2414 34.8466 72.18C36.0012 72.1021 37.1103 71.7 38.0466 71.02C38.3766 72.18 38.6866 73.37 38.9666 74.57C38.0023 75.1134 36.9312 75.4405 35.8278 75.5286C34.7243 75.6167 33.615 75.4636 32.5766 75.08L32.5566 75.07ZM32.6066 71.34C32.6066 70.15 32.5266 69.06 32.4366 68.06C32.9742 68.1817 33.5275 68.2188 34.0766 68.17C35.0675 68.0806 36.0184 67.7361 36.8366 67.17C37.1866 68.17 37.5266 69.17 37.8366 70.26C37.0926 70.7956 36.2445 71.1694 35.3471 71.3571C34.4498 71.5449 33.523 71.5424 32.6266 71.35L32.6066 71.34ZM32.3766 67.34C32.29 66.5 32.1899 65.73 32.0766 65.03C32.3925 65.0609 32.7107 65.0609 33.0266 65.03C33.9499 64.9656 34.8304 64.6162 35.5466 64.03C35.9166 64.82 36.2566 65.66 36.5966 66.53C36.0059 66.9788 35.3201 67.2861 34.5919 67.4283C33.8638 67.5704 33.1128 67.5436 32.3966 67.35L32.3766 67.34ZM31.9666 64.34C31.8166 63.54 31.6666 62.85 31.5166 62.26C31.7228 62.28 31.9304 62.28 32.1366 62.26C32.8913 62.2083 33.6018 61.885 34.1366 61.35C34.554 61.9946 34.9346 62.6624 35.2766 63.35C34.8371 63.7508 34.3137 64.0486 33.7445 64.2216C33.1754 64.3946 32.5749 64.4384 31.9866 64.35L31.9666 64.34ZM31.3166 61.54C31.1266 60.88 30.9566 60.39 30.8266 60.05H31.2566C31.787 60.0013 32.2997 59.8338 32.7566 59.56C33.1132 59.9435 33.4471 60.3475 33.7566 60.77C33.458 61.102 33.0768 61.3491 32.6517 61.4861C32.2267 61.6231 31.7729 61.6451 31.3366 61.55L31.3166 61.54ZM32.6266 58.85C32.2983 59.075 31.9286 59.2324 31.5389 59.3131C31.1491 59.3938 30.7472 59.3961 30.3566 59.32C29.7377 59.1929 29.1764 58.8691 28.7565 58.397C28.3366 57.9248 28.0806 57.3295 28.0266 56.7C27.9922 56.3221 28.0328 55.9412 28.1461 55.5791C28.2594 55.217 28.4431 54.8809 28.6866 54.59C28.9307 54.287 29.2339 54.0367 29.5777 53.8545C29.9215 53.6723 30.2988 53.5619 30.6866 53.53H31.1166C31.4876 53.5487 31.8512 53.6404 32.1866 53.8C32.6508 54.0188 33.0493 54.3556 33.3424 54.7768C33.6355 55.198 33.8128 55.6887 33.8566 56.2C33.9074 56.7107 33.8222 57.2257 33.6097 57.6929C33.3972 58.1601 33.0649 58.5627 32.6466 58.86L32.6266 58.85ZM35.6266 27.02C36.9094 26.523 38.2561 26.2099 39.6266 26.09C41.0588 25.9411 42.5062 26.1084 43.8666 26.58C41.7766 27.16 36.8666 28.74 35.6266 31.16C35.5947 31.211 35.5777 31.2699 35.5777 31.33C35.5777 31.3901 35.5947 31.4491 35.6266 31.5C35.6579 31.5503 35.7024 31.5909 35.7554 31.6174C35.8083 31.6439 35.8676 31.6552 35.9266 31.65C37.5259 31.6882 39.0914 32.1174 40.4866 32.9C38.7066 33.23 35.0566 34.13 33.9966 36.19C33.9677 36.2402 33.9524 36.2971 33.9524 36.355C33.9524 36.4129 33.9677 36.4698 33.9966 36.52C34.0274 36.5714 34.0716 36.6134 34.1244 36.6416C34.1773 36.6698 34.2368 36.6831 34.2966 36.68C35.8352 36.6871 37.3182 37.2561 38.4666 38.28C36.9466 38.41 33.5166 38.9 32.6366 40.57C32.6029 40.624 32.5851 40.6864 32.5851 40.75C32.5851 40.8136 32.6029 40.876 32.6366 40.93C32.6723 40.9847 32.7245 41.0268 32.7855 41.0501C32.8466 41.0735 32.9135 41.0769 32.9766 41.06C33.6006 40.9346 34.2455 40.96 34.8577 41.1339C35.4699 41.3078 36.0318 41.6253 36.4966 42.06C35.5342 42.077 34.5925 42.3417 33.7622 42.8286C32.9319 43.3156 32.2412 44.0083 31.7566 44.84C31.7249 44.8929 31.7081 44.9533 31.7081 45.015C31.7081 45.0766 31.7249 45.1371 31.7566 45.19C31.7911 45.2419 31.8391 45.2834 31.8956 45.3098C31.952 45.3363 32.0146 45.3467 32.0766 45.34C33.0216 45.2747 33.967 45.461 34.8166 45.88C33.1181 47.5227 31.8271 49.5397 31.0466 51.77C30.3366 46.97 28.1166 30.82 35.7066 27.03L35.6266 27.02ZM22.8566 46.52C23.6653 45.56 24.7247 44.8434 25.9166 44.45C25.9766 44.4328 26.0308 44.3995 26.0731 44.3537C26.1154 44.3078 26.1443 44.2512 26.1566 44.19C26.1663 44.1284 26.1594 44.0653 26.1365 44.0073C26.1137 43.9493 26.0757 43.8984 26.0266 43.86C25.0369 43.118 23.8713 42.6458 22.6442 42.4898C21.4171 42.3338 20.1705 42.4993 19.0266 42.97C19.8366 40.47 22.6866 39.97 22.8166 39.91C22.8805 39.9018 22.9405 39.8745 22.9887 39.8317C23.0369 39.7889 23.071 39.7325 23.0866 39.67C23.1013 39.6071 23.0989 39.5415 23.0795 39.4799C23.0602 39.4183 23.0246 39.3631 22.9766 39.32C21.1166 37.76 16.6866 38.97 14.9766 39.52C15.8138 37.665 17.3264 36.1989 19.2066 35.42C19.2635 35.4007 19.314 35.3664 19.3528 35.3206C19.3915 35.2747 19.4171 35.2192 19.4266 35.16C19.4368 35.1017 19.4321 35.0418 19.4129 34.9858C19.3936 34.9298 19.3605 34.8797 19.3166 34.84C17.0366 32.89 12.0766 33.72 9.9766 34.19C11.269 32.5025 12.9688 31.1708 14.9166 30.32C14.9729 30.2998 15.0229 30.2652 15.0615 30.2195C15.1001 30.1739 15.126 30.1189 15.1366 30.06C15.1489 30.0017 15.1451 29.9412 15.1257 29.8848C15.1064 29.8285 15.0721 29.7784 15.0266 29.74C12.3166 27.46 5.52662 28.07 3.02662 28.38C6.80662 24.72 13.0266 24.74 13.0866 24.74C24.0066 25.58 29.1766 46.33 30.3566 51.86C28.3423 49.501 25.7811 47.6711 22.8966 46.53L22.8566 46.52ZM22.7066 55.77C22.4411 54.7876 22.4411 53.7524 22.7066 52.77C22.7252 52.7106 22.7266 52.6472 22.7107 52.587C22.6947 52.5268 22.6622 52.4724 22.6166 52.43C22.5731 52.3862 22.5182 52.3555 22.4581 52.3413C22.398 52.3272 22.3351 52.3302 22.2766 52.35C21.3074 52.6954 20.4432 53.2843 19.7672 54.0602C19.0912 54.836 18.6261 55.7726 18.4166 56.78C18.0464 56.1973 17.823 55.5336 17.7655 54.8456C17.708 54.1577 17.8182 53.466 18.0866 52.83C18.1206 52.778 18.1387 52.7172 18.1387 52.655C18.1387 52.5928 18.1206 52.532 18.0866 52.48C18.0438 52.4319 17.9881 52.3969 17.9261 52.3792C17.8642 52.3615 17.7984 52.3618 17.7366 52.38C15.7966 52.95 14.5966 56.5 14.1666 58.03C13.3004 56.612 12.9938 54.9219 13.3066 53.29C13.319 53.2325 13.3163 53.1729 13.2988 53.1168C13.2813 53.0607 13.2495 53.0102 13.2066 52.97C13.1654 52.926 13.1122 52.895 13.0535 52.8808C12.9949 52.8666 12.9335 52.8698 12.8766 52.89C10.4966 53.58 8.80663 57.29 8.12663 59.06C7.57637 57.4188 7.43562 55.668 7.71662 53.96C7.7332 53.902 7.73359 53.8406 7.71772 53.7824C7.70185 53.7242 7.67035 53.6715 7.62663 53.63C7.58403 53.588 7.53082 53.5584 7.4727 53.5443C7.41457 53.5302 7.3537 53.5322 7.29661 53.55C4.48661 54.39 1.8266 59.25 0.816598 61.28C0.086598 56.99 2.90658 52.73 2.92658 52.7C4.62658 50.5 7.3566 49.51 10.4766 49.24C17.5266 48.64 26.4766 51.76 29.7866 53.01C27.2401 53.3515 24.8124 54.2979 22.7066 55.77ZM28.5066 53.92L28.3366 54.08H28.0366L28.5066 53.92ZM24.8766 57.92C24.8437 57.5357 24.887 57.1488 25.004 56.7813C25.121 56.4138 25.3094 56.073 25.5584 55.7785C25.8074 55.484 26.1121 55.2416 26.455 55.0651C26.7979 54.8886 27.1723 54.7815 27.5566 54.75H27.8566V54.8C27.8566 54.85 27.8066 54.91 27.7766 54.96C27.7082 55.0962 27.6481 55.2365 27.5966 55.38L27.5366 55.59C27.4961 55.7309 27.4661 55.8746 27.4466 56.02V56.21C27.4266 56.4262 27.4266 56.6438 27.4466 56.86C27.462 57.0421 27.492 57.2227 27.5366 57.4C27.5366 57.46 27.5366 57.52 27.5866 57.58L27.7066 57.92L27.7966 58.11C27.8439 58.2098 27.8974 58.3067 27.9566 58.4L28.0766 58.59C28.1343 58.6775 28.1978 58.761 28.2666 58.84L28.4166 59.01C28.4882 59.0916 28.565 59.1684 28.6466 59.24L28.8166 59.38C28.9023 59.4522 28.9925 59.519 29.0866 59.58L29.2566 59.69C29.4007 59.7719 29.5512 59.8421 29.7066 59.9C29.2445 60.2925 28.6709 60.5303 28.0666 60.58C27.6747 60.6169 27.2795 60.5748 26.9042 60.4561C26.5289 60.3375 26.1813 60.1446 25.8819 59.8891C25.5826 59.6336 25.3375 59.3205 25.1614 58.9685C24.9853 58.6165 24.8816 58.2328 24.8566 57.84L24.8766 57.92ZM54.0266 102.21C54.2819 102.858 54.3832 103.557 54.3225 104.251C54.2617 104.945 54.0406 105.616 53.6766 106.21C52.3666 108.49 48.4066 111.42 37.0066 112.4C23.0066 113.59 19.1766 110.11 18.1266 107.92C17.7747 107.238 17.6114 106.474 17.6536 105.707C17.6958 104.941 17.9419 104.2 18.3666 103.56C18.9542 102.892 19.4395 102.14 19.8066 101.33C20.8066 99.33 21.8566 97.27 28.6166 95.16C28.4866 95.67 28.3466 96.16 28.2066 96.7C28.0416 97.3014 28.0559 97.9379 28.2478 98.5313C28.4397 99.1247 28.8007 99.649 29.2866 100.04C30.2862 100.837 31.4331 101.429 32.6616 101.782C33.8902 102.136 35.1763 102.244 36.4466 102.1C37.2234 102.034 37.9891 101.873 38.7266 101.62C39.8594 101.264 40.8655 100.588 41.6246 99.6749C42.3836 98.7616 42.8634 97.6489 43.0066 96.47V96.4C43.0066 96.19 42.9166 95.15 42.7566 93.54C45.1939 93.9352 47.496 94.9261 49.4585 96.4246C51.421 97.923 52.9833 99.8828 54.0066 102.13L54.0266 102.21ZM37.1666 56.01C37.1995 56.3935 37.1566 56.7797 37.0402 57.1465C36.9238 57.5134 36.7363 57.8538 36.4883 58.1481C36.2404 58.4425 35.9369 58.6852 35.5951 58.8622C35.2534 59.0393 34.8801 59.1473 34.4966 59.18C34.1612 59.2125 33.8226 59.1854 33.4966 59.1C33.5566 59.05 33.5966 58.99 33.6566 58.93L33.7366 58.84C33.8266 58.73 33.9166 58.61 33.9966 58.49C34.0666 58.38 34.1266 58.26 34.1866 58.15L34.2466 58.02C34.2466 57.93 34.3166 57.84 34.3466 57.74C34.3766 57.64 34.3466 57.64 34.3966 57.59C34.4258 57.4982 34.4492 57.4047 34.4666 57.31V57.16V56.86C34.4712 56.8134 34.4712 56.7666 34.4666 56.72C34.4766 56.5702 34.4766 56.4198 34.4666 56.27C34.4666 56.12 34.4666 55.98 34.3966 55.83C34.3266 55.68 34.3966 55.74 34.3966 55.69C34.3966 55.64 34.3466 55.5 34.3166 55.41L34.2566 55.25C34.2241 55.1649 34.1874 55.0814 34.1466 55C34.1239 54.948 34.0971 54.8978 34.0666 54.85C34.0666 54.77 33.9766 54.69 33.9266 54.61L33.8366 54.48C33.7753 54.3867 33.7049 54.2996 33.6266 54.22L33.5666 54.14C33.4716 54.0383 33.3715 53.9415 33.2666 53.85L33.1466 53.76L32.9766 53.62C33.2748 53.4895 33.5923 53.4084 33.9166 53.38C34.6821 53.2952 35.4502 53.5153 36.0546 53.9925C36.6591 54.4697 37.0514 55.1657 37.1466 55.93L37.1666 56.01ZM55.7066 44.01C55.6477 44.0154 55.5911 44.0357 55.5421 44.0689C55.4932 44.1021 55.4534 44.1472 55.4266 44.2C55.3977 44.252 55.3825 44.3105 55.3825 44.37C55.3825 44.4295 55.3977 44.488 55.4266 44.54C56.4269 46.2075 56.9973 48.0975 57.0866 50.04C55.7166 48.54 52.4566 45.34 49.7166 45.58C49.6586 45.5841 49.6028 45.604 49.5552 45.6375C49.5076 45.671 49.4701 45.7168 49.4466 45.77C49.4177 45.822 49.4026 45.8805 49.4026 45.94C49.4026 45.9995 49.4177 46.058 49.4466 46.11C50.4283 47.6905 50.7849 49.5805 50.4466 51.41C49.4466 50.05 46.7266 46.82 44.4966 47.02C44.4317 47.0229 44.3691 47.0454 44.3173 47.0847C44.2655 47.1241 44.2269 47.1782 44.2066 47.24C44.182 47.2994 44.1764 47.365 44.1908 47.4277C44.2051 47.4904 44.2386 47.5472 44.2866 47.59C44.8289 48.1446 45.2259 48.8245 45.4422 49.5695C45.6585 50.3144 45.6875 51.1012 45.5266 51.86C44.9056 50.9115 44.052 50.1378 43.0472 49.6127C42.0424 49.0875 40.9199 48.8284 39.7866 48.86C39.7234 48.864 39.6624 48.8846 39.6098 48.9197C39.5571 48.9549 39.5146 49.0032 39.4866 49.06C39.462 49.1173 39.4537 49.1803 39.4625 49.242C39.4714 49.3037 39.497 49.3619 39.5366 49.41C40.2216 50.3319 40.637 51.4258 40.7366 52.57C38.8745 52.1058 36.9478 51.9571 35.0366 52.13C34.1105 52.2154 33.1916 52.3658 32.2866 52.58C36.2866 48.93 51.1366 36.15 59.7766 41.32C59.8266 41.32 64.5166 44.63 65.4466 49.39C63.7066 47.69 58.9366 43.68 55.7066 43.96V44.01Z" fill="#E5E5E5"/>
</g>
</svg>
