<svg width="13" height="16" viewBox="0 0 13 16" fill="none" xmlns="http://www.w3.org/2000/svg">
<g id="Group 1000003537">
<path id="Vector" d="M6.28572 0C4.61925 0.00196598 3.0216 0.66484 1.84322 1.84321C0.664847 3.02159 0.00197267 4.61924 6.68736e-06 6.28571C-0.00198925 7.64756 0.442853 8.97245 1.26629 10.0571C1.26629 10.0571 1.43772 10.2829 1.46572 10.3154L6.28572 16L11.108 10.3126C11.1331 10.2823 11.3052 10.0571 11.3052 10.0571L11.3057 10.0554C12.1288 8.97121 12.5734 7.64693 12.5714 6.28571C12.5695 4.61924 11.9066 3.02159 10.7282 1.84321C9.54985 0.66484 7.95219 0.00196598 6.28572 0V0ZM6.28572 8.57143C5.83365 8.57143 5.39173 8.43737 5.01585 8.18622C4.63996 7.93506 4.347 7.57808 4.174 7.16042C4.001 6.74276 3.95573 6.28318 4.04393 5.83979C4.13212 5.39641 4.34981 4.98913 4.66948 4.66947C4.98914 4.34981 5.39642 4.13211 5.8398 4.04392C6.28319 3.95572 6.74277 4.00099 7.16043 4.17399C7.57809 4.34699 7.93507 4.63996 8.18622 5.01584C8.43738 5.39172 8.57144 5.83364 8.57144 6.28571C8.57068 6.89169 8.32962 7.47263 7.90113 7.90112C7.47264 8.32961 6.8917 8.57067 6.28572 8.57143V8.57143Z" fill="#999999"/>
<path id="_Inner-Path_" d="M6.28571 8.57143C7.54808 8.57143 8.57143 7.54808 8.57143 6.28571C8.57143 5.02335 7.54808 4 6.28571 4C5.02335 4 4 5.02335 4 6.28571C4 7.54808 5.02335 8.57143 6.28571 8.57143Z" fill="#FEFCFB"/>
</g>
</svg>
