<svg width="20" height="17" viewBox="0 0 20 17" fill="none" xmlns="http://www.w3.org/2000/svg">
<g id="Navigation">
<path id="Vector" d="M19.4218 1.74644L11.4708 16.5153C11.4043 16.639 11.2915 16.7405 11.15 16.8038C11.0086 16.8671 10.8464 16.8888 10.689 16.8653C10.5316 16.8418 10.3877 16.7746 10.2799 16.6742C10.1721 16.5737 10.1065 16.4457 10.0933 16.3101L9.42105 9.44459L1.35682 8.8723C1.19755 8.86103 1.04716 8.80515 0.92916 8.71338C0.811163 8.62161 0.732216 8.49914 0.704668 8.36511C0.677119 8.23109 0.702522 8.09307 0.776904 7.97264C0.851286 7.85221 0.970452 7.75617 1.11576 7.69953L18.4633 0.930461C18.5974 0.878137 18.7471 0.862 18.8923 0.884217C19.0375 0.906435 19.1713 0.965943 19.2756 1.05475C19.3799 1.14356 19.4498 1.25741 19.4759 1.38102C19.502 1.50463 19.483 1.63208 19.4216 1.74626L19.4218 1.74644Z" fill="#FA7436"/>
</g>
</svg>
