<svg width="60" height="60" viewBox="0 0 60 60" fill="none" xmlns="http://www.w3.org/2000/svg">
<g id="Social">
<g id="Background" filter="url(#filter0_d_201_476)">
<path fill-rule="evenodd" clip-rule="evenodd" d="M30 48C41.0457 48 50 39.0457 50 28C50 16.9543 41.0457 8 30 8C18.9543 8 10 16.9543 10 28C10 39.0457 18.9543 48 30 48Z" fill="white"/>
</g>
<path id="Vector" d="M37.317 23.1597C36.7365 23.4143 36.118 23.5831 35.4731 23.665C36.1365 23.2689 36.6429 22.6465 36.8809 21.8963C36.2624 22.265 35.5795 22.5255 34.8517 22.6709C34.2643 22.0455 33.4273 21.6582 32.5141 21.6582C30.7424 21.6582 29.3161 23.0963 29.3161 24.8592C29.3161 25.1128 29.3375 25.3567 29.3902 25.5889C26.7297 25.4592 24.3756 24.1841 22.7941 22.2416C22.518 22.7206 22.3561 23.2689 22.3561 23.8592C22.3561 24.9675 22.9268 25.9499 23.7775 26.5187C23.2634 26.5089 22.759 26.3597 22.3317 26.1245C22.3317 26.1343 22.3317 26.147 22.3317 26.1597C22.3317 27.7148 23.4409 29.0065 24.8956 29.3041C24.6351 29.3753 24.3512 29.4094 24.0565 29.4094C23.8517 29.4094 23.6448 29.3977 23.4507 29.3548C23.8653 30.6221 25.0419 31.5538 26.4409 31.5841C25.3522 32.4358 23.9697 32.9489 22.4731 32.9489C22.2107 32.9489 21.959 32.9372 21.7073 32.905C23.1248 33.8192 24.8048 34.3411 26.6165 34.3411C32.5053 34.3411 35.7248 29.4631 35.7248 25.2348C35.7248 25.0933 35.72 24.9567 35.7131 24.8211C36.3483 24.3704 36.8819 23.8075 37.317 23.1597Z" fill="#444444"/>
</g>
<defs>
<filter id="filter0_d_201_476" x="0" y="0" width="60" height="60" filterUnits="userSpaceOnUse" color-interpolation-filters="sRGB">
<feFlood flood-opacity="0" result="BackgroundImageFix"/>
<feColorMatrix in="SourceAlpha" type="matrix" values="0 0 0 0 0 0 0 0 0 0 0 0 0 0 0 0 0 0 127 0" result="hardAlpha"/>
<feOffset dy="2"/>
<feGaussianBlur stdDeviation="5"/>
<feColorMatrix type="matrix" values="0 0 0 0 0 0 0 0 0 0 0 0 0 0 0 0 0 0 0.1 0"/>
<feBlend mode="normal" in2="BackgroundImageFix" result="effect1_dropShadow_201_476"/>
<feBlend mode="normal" in="SourceGraphic" in2="effect1_dropShadow_201_476" result="shape"/>
</filter>
</defs>
</svg>
