<svg width="60" height="60" viewBox="0 0 60 60" fill="none" xmlns="http://www.w3.org/2000/svg">
<g id="Social">
<g id="Background" filter="url(#filter0_d_201_479)">
<path fill-rule="evenodd" clip-rule="evenodd" d="M30 48C41.0457 48 50 39.0457 50 28C50 16.9543 41.0457 8 30 8C18.9543 8 10 16.9543 10 28C10 39.0457 18.9543 48 30 48Z" fill="white"/>
</g>
<path id="Facebook Icon" fill-rule="evenodd" clip-rule="evenodd" d="M32.5449 25.7991C32.2326 25.7003 31.8735 25.6345 31.5456 25.6345C31.1397 25.6345 30.2654 25.9143 30.2654 26.4577V27.7583H32.3419V29.948H30.2654V35.9903H28.1733V29.948H27.1428V27.7583H28.1733V26.6552C28.1733 24.9924 28.8915 23.6094 30.6245 23.6094C31.2178 23.6094 32.2794 23.6423 32.8571 23.8563L32.5449 25.7991Z" fill="#444444"/>
</g>
<defs>
<filter id="filter0_d_201_479" x="0" y="0" width="60" height="60" filterUnits="userSpaceOnUse" color-interpolation-filters="sRGB">
<feFlood flood-opacity="0" result="BackgroundImageFix"/>
<feColorMatrix in="SourceAlpha" type="matrix" values="0 0 0 0 0 0 0 0 0 0 0 0 0 0 0 0 0 0 127 0" result="hardAlpha"/>
<feOffset dy="2"/>
<feGaussianBlur stdDeviation="5"/>
<feColorMatrix type="matrix" values="0 0 0 0 0 0 0 0 0 0 0 0 0 0 0 0 0 0 0.1 0"/>
<feBlend mode="normal" in2="BackgroundImageFix" result="effect1_dropShadow_201_479"/>
<feBlend mode="normal" in="SourceGraphic" in2="effect1_dropShadow_201_479" result="shape"/>
</filter>
</defs>
</svg>
